<?xml version="1.0" encoding="utf-8"?>
<!-- Generated by IcoMoon.io -->
<!DOCTYPE svg PUBLIC "-//W3C//DTD SVG 1.1//EN" "http://www.w3.org/Graphics/SVG/1.1/DTD/svg11.dtd">
<svg version="1.1" xmlns="http://www.w3.org/2000/svg" xmlns:xlink="http://www.w3.org/1999/xlink" width="120" height="120" viewBox="0 0 120 120">
<g id="icomoon-ignore">
	<line stroke-width="1" x1="" y1="" x2="" y2="" stroke="#ffffff" opacity=""></line>
</g>
	<path d="M85.928 78.124c-0.684-1.312-2.044-2.124-3.528-2.124h-18.4v-72c0-2.212-1.788-4-4-4s-4 1.788-4 4v72h-18.4c-1.44 0-2.772 0.908-3.484 2.16-0.708 1.252-0.688 2.916 0.064 4.16l21.148 35.252c0.704 1.172 1.956 2.428 3.32 2.428 0.036 0 0.068 0 0.1 0 1.328 0 2.572-1.156 3.316-2.256l23.648-35.5c0.836-1.232 0.912-2.816 0.216-4.12zM58.94 107.58l-14.248-23.58h30.176l-15.928 23.58z" fill="#ffffff"></path>
</svg>
